<svg height="512" viewBox="0 0 60 60" width="512" xmlns="http://www.w3.org/2000/svg"><g id="Page-1" fill="none" fill-rule="evenodd"><g id="023---Canned-Food" fill="rgb(0,0,0)" fill-rule="nonzero"><path id="Shape" d="m42 29.067v-22.067c0-4.6-10.564-7-21-7s-21 2.4-21 7v41c0 4.363 9.6 6.647 18.712 6.962 2.534 3.315 11.456 5.038 20.288 5.038 10.436 0 21-2.4 21-7v-17c0-4.154-8.633-6.518-18-6.933zm16 19.933c0 2.088-7.228 5-19 5-.71 0-1.372-.01-2-.03v-7c.63.02 1.292.029 2 .029 7.693 0 15.451-1.308 19-3.836zm0-13c0 1.839-5.615 4.316-15 4.88v-2.81c0-2.209139-1.790861-4-4-4s-4 1.790861-4 4v2.81c-9.385-.564-15-3.041-15-4.88 0-.532.475-1.117 1.369-1.7.0376278-.0180762.0737438-.0391438.108-.063 2.672-1.66 8.861-3.237 17.523-3.237 11.772 0 19 2.912 19 5zm-17 4.969c-.652.019-1.317.031-2 .031s-1.348-.012-2-.031v-2.9c0-1.1045695.8954305-2 2-2s2 .8954305 2 2zm-21 2.169c2.4427661 1.4984451 5.1644632 2.4850603 8 2.9v6.96c-5.257-1.078-8-2.783-8-3.998zm19-14.138c-6.466 0-12.979.924-17 2.719v-12.726c7.358-.108 14.6-1.41 18-3.829v13.844c-.333-.008-.667-.008-1-.008zm-18-27c11.772 0 19 2.912 19 5 0 1.839-5.615 4.316-15 4.88v-2.88c0-2.209139-1.790861-4-4-4s-4 1.790861-4 4v2.88c-9.385-.564-15-3.041-15-4.88 0-2.088 7.228-5 19-5zm2 9.969c-.652.019-1.317.031-2 .031s-1.348-.012-2-.031v-2.969c0-1.1045695.8954305-2 2-2s2 .8954305 2 2zm-21 36.031v-1.837c1.76363235 1.1194051 3.71022321 1.9202456 5.751 2.366.08141345.0205119.16504238.0309235.249.031.50451638.0009821.93074807-.3740063.99404527-.8745372.06329721-.5005309-.25616702-.9698201-.74504527-1.0944628-4.317-1.107-6.249-2.601-6.249-3.591v-2.837c1.76363235 1.1194051 3.71022321 1.9202456 5.751 2.366.08141345.0205119.16504238.0309235.249.031.50451638.0009821.93074807-.3740063.99404527-.8745372.06329721-.5005309-.25616702-.9698201-.74504527-1.0944628-4.317-1.107-6.249-2.601-6.249-3.591v-2.837c1.76363235 1.1194051 3.71022321 1.9202456 5.751 2.366.08141345.0205119.16504238.0309235.249.031.50451638.0009821.93074807-.3740063.99404527-.8745372.06329721-.5005309-.25616702-.9698201-.74504527-1.0944628-4.317-1.107-6.249-2.601-6.249-3.591v-2.837c1.76363235 1.1194051 3.71022321 1.9202456 5.751 2.366.08141345.0205119.16504238.0309235.249.031.50451638.0009821.93074807-.3740063.99404527-.8745372.06329721-.5005309-.25616702-.9698201-.74504527-1.0944628-4.317-1.107-6.249-2.601-6.249-3.591v-2.837c1.76363235 1.1194051 3.71022321 1.9202456 5.751 2.366.08141345.0205119.16504238.0309235.249.031.50451638.0009821.93074807-.3740063.99404527-.8745372.06329721-.5005309-.25616702-.9698201-.74504527-1.0944628-4.317-1.107-6.249-2.601-6.249-3.591v-2.837c1.76363235 1.1194051 3.71022321 1.9202456 5.751 2.366.08141345.0205119.16504238.0309235.249.031.50451638.0009821.93074807-.3740063.99404527-.8745372.06329721-.5005309-.25616702-.9698201-.74504527-1.0944628-4.317-1.107-6.249-2.601-6.249-3.591v-2.836c3.549 2.528 11.307 3.836 19 3.836s15.451-1.308 19-3.836v1.836c0 2.088-7.228 5-19 5-.5522847 0-1 .4477153-1 1v14.836c-1.1494489.658434-1.8983703 1.8432277-2 3.164v16.927c-10.309-.47-16-3.151-16-4.927zm37 10c-11.772 0-19-2.912-19-5v-.87c1.817 1.3 4.821 2.359 8.829 3.056.0565486.0091116.1137224.0137925.171.014.5522847 0 1-.4477153 1-1v-9c-.0001318-.4862064-.3499549-.9018587-.829-.985-6.021-1.047-9.171-2.915-9.171-4.215v-.836c3.549 2.528 11.307 3.836 19 3.836s15.451-1.308 19-3.836v.836c0 2.088-7.228 5-19 5-1.077 0-2.042-.022-2.949-.068-.2739372-.0139892-.541595.0851589-.7403117.2742329s-.3110453.4514731-.3106883.7257671v9c-.0006936.5329659.4167272.9728192.949 1 .942.048 1.94.071 3.051.071 7.693 0 15.451-1.308 19-3.836v.833c0 2.088-7.228 5-19 5z"/></g></g></svg>